<svg xmlns="http://www.w3.org/2000/svg" version="1.1" xmlns:xlink="http://www.w3.org/1999/xlink" xmlns:svgjs="http://svgjs.dev/svgjs" width="512" height="512"><svg width="512" height="512" viewBox="0 0 512 512" fill="none" xmlns="http://www.w3.org/2000/svg">
<rect width="512" height="512" fill="#5A0202"></rect>
<path d="M494.554 292.718C494.554 292.718 477.72 273.457 474.29 270.088L474.227 270.023C469.685 265.576 464.889 261.553 459.775 257.989C452.724 253.051 446.055 248.375 436.05 245.889C435.129 245.66 434.303 245.53 433.414 245.366C433.191 237.975 432.207 226.039 422.011 218.649C416.93 214.986 409.879 214.953 405.972 218.649C402.701 221.69 402.415 226.497 405.146 231.501C408.799 238.172 413.595 242.39 418.01 245.072C413.309 245.857 409.243 247.328 405.4 248.734C399.112 251.023 393.681 252.985 386.28 252.07C377.482 250.991 373.195 246.641 366.747 240.068C361.348 234.574 354.646 227.773 343.117 221.2C324.537 210.604 301.605 205.339 283.216 207.465C248.088 211.52 215.66 245.955 198.318 297.59C194.666 297.46 184.089 295.563 161.571 281.697C118.979 255.471 94.2688 267.113 75.7204 281.992C57.2672 296.773 30.3656 293.437 23.2828 291.017C18.7728 289.48 16.486 287.715 16.2001 289.055C15.6284 291.9 16.1048 293.83 19.9797 295.53C25.9825 298.146 59.8081 303.902 81.6279 286.407C101.002 270.873 121.139 264.987 156.394 286.701C179.77 301.09 192.379 304 198.731 304C204.734 304 205.591 301.155 205.591 301.155C221.694 251.743 252.63 217.439 284.391 213.776C300.462 211.912 321.583 216.85 338.194 226.334C348.77 232.351 354.805 238.499 360.141 243.927C366.969 250.86 372.877 256.877 384.946 258.349C394.856 259.591 402.288 256.877 408.862 254.49C416.453 251.743 423.028 249.356 433.445 251.939C441.767 254.032 447.516 258.054 454.185 262.698C464.317 269.794 473.306 278.852 481.024 289.742C483.12 292.816 480.611 298.735 476.736 301.024C472.321 303.64 483.437 303.869 490.457 301.318C495.665 299.422 497.635 296.969 494.49 292.718H494.554ZM410.99 228.1C410.323 226.89 409.402 224.731 410.482 223.718C411.117 223.129 412.229 222.802 413.531 222.802C415.056 222.802 416.771 223.26 418.2 224.306C424.139 228.59 425.918 235.13 426.522 241.671C422.107 240.036 415.5 236.34 410.99 228.1Z" fill="white"></path>
</svg><style>@media (prefers-color-scheme: light) { :root { filter: none; } }
@media (prefers-color-scheme: dark) { :root { filter: none; } }
</style></svg>